<svg xmlns="http://www.w3.org/2000/svg" width="50" height="50" fill="none" viewBox="0 0 50 50">
  <g fill="#fff" clipPath="url(#clip0_197_19370)">
    <path d="M33.116 20.041v-9.626l8.339 4.805-8.339 4.821zm2.093-6.005v2.402l2.076-1.201-2.076-1.201zM44.801 28.123h2.076v10.415h-2.076V28.123zM5.216 38.538H3.123V15.632a3.134 3.134 0 013.123-3.123h16.66v2.076H6.264a1.05 1.05 0 00-1.047 1.046v22.907zM46.877 45.83H3.123A3.134 3.134 0 010 42.709v-3.123h50v3.123a3.134 3.134 0 01-3.123 3.123zM2.093 41.662v1.047a1.05 1.05 0 001.047 1.046h43.754a1.05 1.05 0 001.047-1.046V41.66H2.093z"></path>
    <path d="M23.97 38.538h-2.076v-2.076a3.134 3.134 0 00-3.122-3.123h-7.31a3.134 3.134 0 00-3.123 3.123v2.076H6.263v-2.076a5.225 5.225 0 015.216-5.216h7.293a5.225 5.225 0 015.216 5.216v2.076h-.017zM15.117 30.216a4.69 4.69 0 01-4.685-4.684c0-2.574 2.094-4.702 4.685-4.702a4.69 4.69 0 014.684 4.685c0 2.573-2.11 4.701-4.684 4.701zm0-7.292a2.607 2.607 0 00-2.609 2.608 2.607 2.607 0 002.609 2.608 2.607 2.607 0 002.608-2.608 2.618 2.618 0 00-2.608-2.608zM27.093 33.768v-7.721h-4.17V4.17H50v21.877H34.815l-7.722 7.721zM25 23.953h4.17v4.77l4.77-4.77h13.967V6.246H25v17.707z"></path>
  </g>
  <defs>
    <clipPath id="clip0_197_19370">
      <path fill="#fff" d="M0 0H50V50H0z"></path>
    </clipPath>
  </defs>
</svg>