<svg xmlns="http://www.w3.org/2000/svg" width="50" height="50" fill="none" viewBox="0 0 50 50">
  <path fill="#fff" d="M23.438 7.129c0 .54.437.976.976.976h18.75a.977.977 0 000-1.953h-18.75a.977.977 0 00-.977.977zM43.164 12.012h-12.89a.977.977 0 000 1.953h12.89a.977.977 0 000-1.953zM30.86 1.953a.977.977 0 100-1.953.977.977 0 000 1.953z"></path>
  <path fill="#fff" d="M49.023 0h-13.77a.977.977 0 000 1.953h12.794v19.14H36.719v-1.952a.977.977 0 00-1.953 0v1.953H24.414V19.14c0-5.056-3.861-9.226-8.789-9.717v-7.47h10.84a.977.977 0 100-1.954H14.648a.977.977 0 00-.976.977v8.447c-4.928.491-8.79 4.661-8.79 9.717v2.076A3.913 3.913 0 001.954 25a3.911 3.911 0 003.756 3.903 9.709 9.709 0 005.033 5.05v1.79H6.836A6.844 6.844 0 000 42.577v6.445c0 .54.437.977.977.977h22.46c.54 0 .977-.437.977-.977v-5.468h8.398a6.844 6.844 0 006.836-6.836v-4.883a3.913 3.913 0 00-2.93-3.783v-5.006h12.305c.54 0 .977-.437.977-.977V.977A.977.977 0 0049.023 0zM14.648 11.328c4.308 0 7.813 3.505 7.813 7.813h-4.883a1.955 1.955 0 01-1.953-1.953.977.977 0 10-1.953 0 1.955 1.955 0 01-1.953 1.953H6.836c0-4.308 3.505-7.813 7.812-7.813zM7.295 27.604a.977.977 0 00-.921-.65h-.515A1.955 1.955 0 013.906 25c0-1.077.876-1.953 1.953-1.953.54 0 .977-.437.977-.977v-.976h4.883a3.898 3.898 0 002.93-1.325 3.898 3.898 0 002.93 1.325h4.882v.976c0 .54.437.977.977.977 1.077 0 1.953.876 1.953 1.953a1.955 1.955 0 01-1.953 1.953h-.515a.977.977 0 00-.92.65 7.777 7.777 0 01-4.75 4.765.977.977 0 00-.651.921v3.43a1.955 1.955 0 01-1.954 1.953 1.955 1.955 0 01-1.953-1.953v-3.43a.977.977 0 00-.65-.92 7.777 7.777 0 01-4.75-4.765zm16.142 13.998a.977.977 0 00-.976.976v5.469H7.813v-2.54a.977.977 0 00-1.954 0v2.54H1.953v-5.469a4.888 4.888 0 014.883-4.883h4.03a3.913 3.913 0 003.782 2.93 3.913 3.913 0 003.783-2.93h10.475v3.907h-5.468zm14.258-9.766v4.883a4.888 4.888 0 01-4.883 4.883H30.86v-3.907h1.953c.54 0 .977-.437.977-.976v-4.883c0-1.077.876-1.953 1.953-1.953s1.953.876 1.953 1.953zm-2.93-3.783a3.913 3.913 0 00-2.93 3.783v3.906h-13.28v-1.789a9.71 9.71 0 005.033-5.05A3.911 3.911 0 0027.344 25c0-.711-.192-1.378-.525-1.953h7.947v5.006z"></path>
</svg>