<svg xmlns="http://www.w3.org/2000/svg" width="50" height="50" fill="none" viewBox="0 0 50 50">
  <path fill="#fff" d="M46.094 1.563H3.906A3.911 3.911 0 000 5.469v31.25a3.91 3.91 0 003.906 3.906H12.5a.781.781 0 100-1.563H3.906a2.344 2.344 0 01-2.344-2.343V12.5h13.282a3.913 3.913 0 003.828-3.125h29.765v27.344a2.343 2.343 0 01-2.343 2.343H37.5a.781.781 0 100 1.563h8.594A3.91 3.91 0 0050 36.719V5.469a3.91 3.91 0 00-3.906-3.907zm-28.125 6.25a.781.781 0 00-.782.78 2.343 2.343 0 01-2.343 2.345H1.563v-5.47a2.344 2.344 0 012.343-2.343h42.188a2.343 2.343 0 012.343 2.344v2.343H17.97z"></path>
  <path fill="#fff" d="M5.469 7.813H3.906a.781.781 0 000 1.562H5.47a.781.781 0 000-1.563zM10.156 7.813H8.594a.781.781 0 000 1.562h1.562a.781.781 0 100-1.563zM14.844 7.813H13.28a.781.781 0 100 1.562h1.563a.781.781 0 100-1.563zM46.094 4.688H43.75a.781.781 0 100 1.562h2.344a.781.781 0 100-1.563zM40.625 4.688H25.781a.781.781 0 100 1.562h14.844a.781.781 0 100-1.563zM32.813 28.203v-5.547a7.812 7.812 0 10-15.626 0v5.547a3.913 3.913 0 00-3.125 3.828v12.5a3.91 3.91 0 003.907 3.907H32.03a3.91 3.91 0 003.907-3.907v-12.5a3.913 3.913 0 00-3.126-3.828zM18.75 22.656a6.25 6.25 0 0112.5 0v5.469h-2.344v-5.469a3.906 3.906 0 10-7.812 0v5.469H18.75v-5.469zm3.906 5.469v-5.469a2.344 2.344 0 014.688 0v5.469h-4.688zm11.719 16.406a2.343 2.343 0 01-2.344 2.344H17.97a2.343 2.343 0 01-2.344-2.344v-12.5a2.343 2.343 0 012.344-2.343H32.03a2.343 2.343 0 012.344 2.343v12.5z"></path>
  <path fill="#fff" d="M27.685 38.584a3.507 3.507 0 00-3.454-5.686 3.54 3.54 0 00-1.425.682 3.497 3.497 0 00-.492 5l-.908 3.178a1.564 1.564 0 001.505 1.992h4.178a1.563 1.563 0 001.505-1.992l-.909-3.174zm-4.774 3.603l1.031-3.609a.781.781 0 00-.234-.798 1.923 1.923 0 01-.66-1.452 1.944 1.944 0 01.734-1.527 1.966 1.966 0 011.685-.373 1.944 1.944 0 01.824 3.352.78.78 0 00-.235.798l1.033 3.61h-4.178z"></path>
</svg>